<?xml version="1.0" encoding="UTF-8" standalone="no"?>
<!-- Created with Inkscape (http://www.inkscape.org/) -->

<svg
   xmlns:dc="http://purl.org/dc/elements/1.1/"
   xmlns:cc="http://creativecommons.org/ns#"
   xmlns:rdf="http://www.w3.org/1999/02/22-rdf-syntax-ns#"
   xmlns:svg="http://www.w3.org/2000/svg"
   xmlns="http://www.w3.org/2000/svg"
   xmlns:sodipodi="http://sodipodi.sourceforge.net/DTD/sodipodi-0.dtd"
   xmlns:inkscape="http://www.inkscape.org/namespaces/inkscape"
   width="210mm"
   height="297mm"
   viewBox="0 0 744.09448819 1052.3622047"
   id="svg2"
   version="1.1"
   inkscape:version="0.91 r13725"
   sodipodi:docname="logo.svg">
  <defs
     id="defs4" />
  <sodipodi:namedview
     id="base"
     pagecolor="#ffffff"
     bordercolor="#666666"
     borderopacity="1.0"
     inkscape:pageopacity="0.0"
     inkscape:pageshadow="2"
     inkscape:zoom="0.49497475"
     inkscape:cx="523.30378"
     inkscape:cy="547.37263"
     inkscape:document-units="px"
     inkscape:current-layer="layer1"
     showgrid="false"
     inkscape:window-width="1366"
     inkscape:window-height="710"
     inkscape:window-x="0"
     inkscape:window-y="32"
     inkscape:window-maximized="1" />
  <metadata
     id="metadata7">
    <rdf:RDF>
      <cc:Work
         rdf:about="">
        <dc:format>image/svg+xml</dc:format>
        <dc:type
           rdf:resource="http://purl.org/dc/dcmitype/StillImage" />
        <dc:title />
      </cc:Work>
    </rdf:RDF>
  </metadata>
  <g
     inkscape:label="Layer 1"
     inkscape:groupmode="layer"
     id="layer1">
    <rect
       style="opacity:1;fill:none;fill-opacity:1;fill-rule:nonzero;stroke:none;stroke-width:1.89999998;stroke-linecap:square;stroke-linejoin:miter;stroke-miterlimit:4;stroke-dasharray:none;stroke-dashoffset:0;stroke-opacity:1"
       id="rect4194"
       width="957.14288"
       height="1271.4286"
       x="-94.285721"
       y="-59.066372" />
    <path
       style="fill:#deb887;fill-rule:evenodd;stroke:none;stroke-width:1px;stroke-linecap:butt;stroke-linejoin:miter;stroke-opacity:1"
       d="m 230.62519,714.58997 c 56.01066,29.44545 159.74616,42.8195 218.48455,19.28957 78.06849,-31.27334 135.9554,-67.8591 176.71544,-141.45688 28.9593,-52.28991 31.61079,-177.93096 12.85203,-234.68982 -28.93655,-87.55407 -102.12552,-138.77717 -192.78049,-122.16729 -70.8269,12.97695 -25.70406,83.58815 -176.71544,122.1673 -50.19787,12.82415 -80.22623,33.28184 -109.24227,80.37323 -22.39829,36.35114 -29.8841,105.82765 -22.49106,147.88673 7.01316,39.89795 57.33674,109.75539 93.17724,128.59716 z"
       id="path4138" />
    <path
       style="fill:none;fill-rule:evenodd;stroke:#723d00;stroke-width:4.3;stroke-linecap:butt;stroke-linejoin:miter;stroke-miterlimit:4;stroke-dasharray:none;stroke-opacity:1"
       d="m 357.14286,415.21935 c 54.02238,-31.81369 34.28572,20 34.28572,20"
       id="path4140"
       inkscape:connector-curvature="0"
       sodipodi:nodetypes="cc" />
    <path
       style="fill:none;fill-rule:evenodd;stroke:#723d00;stroke-width:4.3;stroke-linecap:butt;stroke-linejoin:miter;stroke-miterlimit:4;stroke-dasharray:none;stroke-opacity:1"
       d="m 445.71429,452.36221 c 32.32661,-8.51709 48.60415,-0.98511 42.85715,28.57142"
       id="path4142"
       inkscape:connector-curvature="0"
       sodipodi:nodetypes="cc" />
    <path
       style="fill:none;fill-rule:evenodd;stroke:#723d00;stroke-width:6.19999981;stroke-linecap:butt;stroke-linejoin:miter;stroke-miterlimit:4;stroke-dasharray:none;stroke-opacity:1"
       d="m 248.57144,529.50506 -2.85715,25.71429 c -4.65739,41.9165 36.21005,64.94139 68.57143,71.42857 C 337.70539,631.34263 380,598.07649 380,598.07649"
       id="path4144"
       inkscape:connector-curvature="0"
       sodipodi:nodetypes="cssc" />
    <path
       style="opacity:1;fill:#ffdab9;fill-opacity:1;fill-rule:nonzero;stroke:none;stroke-width:1.89999998;stroke-linecap:square;stroke-linejoin:miter;stroke-miterlimit:4;stroke-dasharray:none;stroke-dashoffset:0;stroke-opacity:1"
       id="path4146-7"
       sodipodi:type="arc"
       sodipodi:cx="227.93295"
       sodipodi:cy="462.4183"
       sodipodi:rx="40.911179"
       sodipodi:ry="35.355339"
       sodipodi:start="0"
       sodipodi:end="6.0869056"
       sodipodi:open="true"
       d="m 268.84413,462.4183 a 40.911179,35.355339 0 0 1 -38.90447,35.31279 40.911179,35.355339 0 0 1 -42.72103,-31.84858 40.911179,35.355339 0 0 1 34.71353,-38.43715 40.911179,35.355339 0 0 1 46.12643,28.07788" />
    <path
       style="opacity:1;fill:#ffdab9;fill-opacity:1;fill-rule:nonzero;stroke:none;stroke-width:1.89999998;stroke-linecap:square;stroke-linejoin:miter;stroke-miterlimit:4;stroke-dasharray:none;stroke-dashoffset:0;stroke-opacity:1"
       id="path4146-7-5"
       sodipodi:type="arc"
       sodipodi:cx="449.66147"
       sodipodi:cy="610.40558"
       sodipodi:rx="40.911179"
       sodipodi:ry="35.355339"
       sodipodi:start="0"
       sodipodi:end="6.0869056"
       sodipodi:open="true"
       d="m 490.57265,610.40558 a 40.911179,35.355339 0 0 1 -38.90448,35.31278 40.911179,35.355339 0 0 1 -42.72102,-31.84858 40.911179,35.355339 0 0 1 34.71352,-38.43714 40.911179,35.355339 0 0 1 46.12644,28.07788" />
    <text
       xml:space="preserve"
       style="font-style:normal;font-weight:normal;font-size:102.92216492px;line-height:125%;font-family:sans-serif;letter-spacing:0px;word-spacing:0px;fill:#fff5ee;fill-opacity:1;stroke:none;stroke-width:1px;stroke-linecap:butt;stroke-linejoin:miter;stroke-opacity:1;"
       x="83.42347"
       y="928.89062"
       id="text4190"
       sodipodi:linespacing="125%"><tspan
         sodipodi:role="line"
         id="tspan4192"
         x="83.42347"
         y="928.89062"
         style="font-style:normal;font-variant:normal;font-weight:normal;font-stretch:normal;font-size:231.57487488px;font-family:'Ekushey Kolom';-inkscape-font-specification:'Ekushey Kolom';fill:#fff5ee;">Alturas</tspan></text>
  </g>
</svg>
